#!OML:ASF E:\Steps\Project 1\Capture day 1\Session 2\Subject.ASF
:FULLY-SPECIFIED
:DEGREES
150
root 9.04065 16.2395 31.1007 -153.119 -0.899035 179.121
lowerback -32.4166 -1.60376 -5.54604
upperback -1.97792 -0.944831 -0.452254
thorax 14.6528 -1.14449 2.00874
lowerneck -1.22251 -2.90594 -1.71708
upperneck -8.32823 -3.04812 6.59936
head -2.29995 -1.44572 2.46533
rclavicle 3.47873e-015 -5.1684e-015
rhumerus -25.8809 -18.2049 -84.3669
rradius 20.4681
rwrist 6.82352
rhand -7.91257 -51.3969
rfingers 7.12502
rthumb 17.993 -80.5846
lclavicle 3.47873e-015 -5.1684e-015
lhumerus -24.2843 -0.421233 86.9996
lradius 15.0435
lwrist -11.3061
lhand -22.5465 -11.696
lfingers 7.12502
lthumb 3.881 18.2484
rfemur -23.8936 8.39248 19.4269
rtibia 9.49339
rfoot -21.4569 -8.94851
rtoes -32.9151
lfemur -23.8401 -8.6925 -19.0286
ltibia 8.58883
lfoot -9.66595 4.5987
ltoes -39.6108
151
root 9.04284 16.2388 31.097 -153.157 -0.892534 179.081
lowerback -32.4411 -1.61724 -5.62836
upperback -1.94825 -0.924053 -0.463435
thorax 14.6962 -1.13996 2.04889
lowerneck -1.2307 -2.89419 -1.67936
upperneck -8.28562 -3.03569 6.5958
head -2.28547 -1.44058 2.45607
rclavicle -4.82053e-015 1.39149e-014
rhumerus -25.8863 -18.2698 -84.3459
rradius 20.4598
rwrist 6.85401
rhand -7.86365 -51.4943
rfingers 7.12502
rthumb 18.04 -80.6777
lclavicle -4.82053e-015 1.39149e-014
lhumerus -24.2276 -0.384978 86.9729
lradius 14.9784
lwrist -11.331
lhand -22.5203 -11.5509
lfingers 7.12502
lthumb 3.90637 18.393
rfemur -23.8236 8.07792 19.4733
rtibia 9.52255
rfoot -21.5406 -8.64973
rtoes -32.9967
lfemur -23.7568 -8.60095 -19.0933
ltibia 8.59437
lfoot -9.73592 4.49761
ltoes -39.3367
152
root 9.04775 16.2424 31.0902 -153.445 -1.11365 179.039
lowerback -32.194 -1.7287 -5.70319
upperback -1.86717 -1.03083 -0.431914
thorax 14.6951 -1.18201 2.08633
lowerneck -1.27814 -2.8927 -1.68112
upperneck -8.24982 -3.03311 6.62334
head -2.26491 -1.4384 2.46362
rclavicle -1.09332e-015 3.57812e-015
rhumerus -25.847 -18.2337 -84.3482
rradius 20.4387
rwrist 6.82591
rhand -7.77411 -51.624
rfingers 7.12502
rthumb 18.1262 -80.7994
lclavicle -1.09332e-015 3.57812e-015
lhumerus -24.1247 -0.186981 86.9103
lradius 14.8733
lwrist -11.4399
lhand -22.3926 -11.4362
lfingers 7.12502
lthumb 4.02968 18.5054
rfemur -23.3162 7.98674 19.559
rtibia 9.32072
rfoot -21.5631 -8.72521
rtoes -32.7631
lfemur -23.4201 -8.55696 -19.1292
ltibia 8.59213
lfoot -9.79352 4.20981
ltoes -39.5355
153
root 9.04464 16.2381 31.0939 -153.264 -0.828343 179.336
lowerback -32.3431 -1.53389 -5.38461
upperback -1.93944 -0.912226 -0.38348
thorax 14.6667 -1.11697 2.01336
lowerneck -1.26984 -2.9016 -1.71348
upperneck -8.29482 -3.03754 6.66187
head -2.2803 -1.4399 2.48358
rclavicle -7.85199e-015 3.4191e-014
rhumerus -25.8228 -18.2666 -84.3151
rradius 20.3996
rwrist 6.90285
rhand -7.71868 -51.5123
rfingers 7.12502
rthumb 18.1795 -80.6828
lclavicle -7.85199e-015 3.4191e-014
lhumerus -24.0603 0.0492004 86.852
lradius 14.7454
lwrist -11.5978
lhand -21.5886 -11.4278
lfingers 7.12502
lthumb 4.80599 18.4977
rfemur -23.7441 8.04696 19.8064
rtibia 9.62291
rfoot -21.5973 -8.38328
rtoes -32.8683
lfemur -23.6233 -8.43194 -18.8314
ltibia 8.58498
lfoot -9.8363 4.48275
ltoes -39.34
154
root 9.04571 16.2339 31.0934 -153.1 -0.826304 179.413
lowerback -32.4967 -1.5177 -5.3383
upperback -1.99147 -0.922465 -0.345899
thorax 14.6727 -1.12558 2.02096
lowerneck -1.20693 -2.91997 -1.74378
upperneck -8.3635 -3.05435 6.69859
head -2.31286 -1.44908 2.50455
rclavicle -3.42904e-015 3.97569e-016
rhumerus -25.8378 -18.3762 -84.2587
rradius 20.3647
rwrist 7.0054
rhand -7.78525 -51.335
rfingers 7.12502
rthumb 18.1155 -80.5114
lclavicle -3.42904e-015 3.97569e-016
lhumerus -24.1237 0.0784531 86.8861
lradius 14.6599
lwrist -12.0757
lhand -23.3812 -12.473
lfingers 7.12502
lthumb 3.07493 17.4845
rfemur -23.9499 8.21543 19.8509
rtibia 9.66392
rfoot -21.5185 -8.53235
rtoes -33.2319
lfemur -23.8251 -7.92258 -18.8205
ltibia 8.61591
lfoot -9.75293 4.07004
ltoes -39.5748
155
root 9.04883 16.229 31.0985 -152.81 -0.67389 179.489
lowerback -32.7371 -1.44219 -5.32912
upperback -2.06676 -0.842573 -0.34994
thorax 14.68 -1.10002 2.0382
lowerneck -1.18118 -2.93135 -1.73108
upperneck -8.3538 -3.06838 6.72792
head -2.31351 -1.45757 2.5126
rclavicle -3.03147e-015 -8.34896e-015
rhumerus -25.8576 -18.4515 -84.2539
rradius 20.375
rwrist 7.01655
rhand -7.84527 -51.3317
rfingers 7.12502
rthumb 18.0577 -80.5134
lclavicle -3.03147e-015 -8.34896e-015
lhumerus -24.1012 0.367142 86.7889
lradius 14.6623
lwrist -12.1634
lhand -22.8989 -12.3781
lfingers 7.12502
lthumb 3.54069 17.5723
rfemur -24.3997 8.39998 19.8553
rtibia 9.77072
rfoot -21.4564 -8.5252
rtoes -33.2938
lfemur -24.1963 -8.16107 -18.6408
ltibia 8.68765
lfoot -9.73366 4.52428
ltoes -39.9064
156
root 9.048 16.2327 31.0846 -153.183 -0.907741 179.322
lowerback -32.5112 -1.5691 -5.43995
upperback -1.94058 -0.935311 -0.385765
thorax 14.7386 -1.13531 2.02652
lowerneck -1.16426 -2.9428 -1.73177
upperneck -8.35616 -3.08034 6.7666
head -2.31639 -1.46438 2.52625
rclavicle -4.27387e-015 1.59028e-015
rhumerus -25.8658 -18.437 -84.2819
rradius 20.4095
rwrist 6.97978
rhand -7.82213 -51.3229
rfingers 7.12502
rthumb 18.08 -80.5026
lclavicle -4.27387e-015 1.59028e-015
lhumerus -24.0715 0.26407 86.7976
lradius 14.641
lwrist -11.9579
lhand -22.9649 -12.2468
lfingers 7.12502
lthumb 3.47696 17.7046
rfemur -23.7423 8.13972 19.7865
rtibia 9.41515
rfoot -21.3945 -8.53852
rtoes -33.0032
lfemur -23.6925 -8.55208 -18.7722
ltibia 8.58676
lfoot -9.72788 4.61928
ltoes -39.8426
157
root 9.04513 16.2307 31.0779 -153.275 -0.851164 179.36
lowerback -32.4979 -1.5344 -5.35916
upperback -1.92063 -0.91436 -0.391541
thorax 14.755 -1.11957 1.98612
lowerneck -1.1845 -2.93306 -1.76103
upperneck -8.28251 -3.07487 6.77995
head -2.28811 -1.46166 2.53379
rclavicle -9.93923e-016 -2.78299e-014
rhumerus -25.9002 -18.4558 -84.245
rradius 20.3775
rwrist 7.10263
rhand -7.39723 -51.1218
rfingers 7.12502
rthumb 18.4887 -80.2632
lclavicle -9.93923e-016 -2.78299e-014
lhumerus -24.0931 0.00407374 86.8716
lradius 14.6088
lwrist -11.7419
lhand -22.4058 -12.1676
lfingers 7.12502
lthumb 4.01689 17.7743
rfemur -23.6306 7.69132 19.9273
rtibia 9.4473
rfoot -21.5173 -8.07147
rtoes -33.3043
lfemur -23.4967 -8.61309 -18.7668
ltibia 8.48791
lfoot -9.73456 4.7473
ltoes -39.8434
158
root 9.04459 16.2255 31.0807 -153.03 -0.651108 179.53
lowerback -32.7095 -1.42415 -5.22244
upperback -2.00495 -0.842377 -0.360657
thorax 14.7414 -1.08941 1.97056
lowerneck -1.22181 -2.90999 -1.77372
upperneck -8.18453 -3.05507 6.77149
head -2.24986 -1.45172 2.52995
rclavicle -1.06847e-014 -2.26615e-014
rhumerus -25.9352 -18.4413 -84.2044
rradius 20.3385
rwrist 7.19113
rhand -6.91326 -50.9056
rfingers 7.12502
rthumb 18.9542 -80.0021
lclavicle -1.06847e-014 -2.26615e-014
lhumerus -24.1523 -0.130012 86.9275
lradius 14.6066
lwrist -11.8279
lhand -23.436 -12.134
lfingers 7.12502
lthumb 3.02202 17.8243
rfemur -24.0429 7.84374 20.0371
rtibia 9.66111
rfoot -21.5996 -7.99788
rtoes -33.8445
lfemur -23.7516 -8.60764 -18.5711
ltibia 8.47005
lfoot -9.71929 4.99812
ltoes -40.2293
